<?xml version="1.0" standalone="no"?>
<!DOCTYPE svg PUBLIC "-//W3C//DTD SVG 20010904//EN"
 "http://www.w3.org/TR/2001/REC-SVG-20010904/DTD/svg10.dtd">
<svg version="1.0" xmlns="http://www.w3.org/2000/svg"
 width="612.000000pt" height="378.000000pt" viewBox="0 0 612.000000 378.000000"
 preserveAspectRatio="xMidYMid meet">

<g transform="translate(0.000000,378.000000) scale(0.100000,-0.100000)"
fill="#000000" stroke="none">
<path d="M2975 3730 c-162 -18 -302 -86 -420 -205 -92 -92 -145 -177 -181
-290 -56 -174 -41 -354 43 -524 37 -78 60 -109 127 -175 94 -93 161 -136 283
-179 81 -29 98 -31 218 -31 135 0 170 6 285 51 280 110 467 399 447 693 -11
154 -58 280 -148 392 -157 197 -400 297 -654 268z m241 -260 c170 -59 307
-227 321 -396 25 -303 -254 -554 -562 -504 -249 40 -426 275 -388 518 33 211
200 373 418 405 50 8 154 -4 211 -23z"/>
<path d="M1171 3229 c-224 -44 -425 -206 -505 -409 -137 -347 -7 -701 317
-863 99 -50 190 -70 317 -70 194 -1 349 62 485 197 140 139 198 279 198 476 0
177 -62 326 -192 464 -157 166 -404 248 -620 205z m259 -259 c140 -41 256
-164 296 -315 50 -187 -45 -394 -223 -484 -226 -113 -496 -26 -605 196 -32 65
-33 72 -33 188 0 116 1 123 33 187 47 96 109 161 195 203 115 56 205 63 337
25z"/>
<path d="M4675 3226 c-140 -33 -236 -86 -336 -186 -271 -272 -278 -694 -15
-954 119 -118 243 -177 414 -197 214 -24 414 44 567 196 90 89 137 167 171
284 24 83 26 105 22 209 -4 99 -10 130 -36 199 -75 203 -243 364 -449 430 -97
31 -249 40 -338 19z m326 -278 c303 -151 348 -540 85 -738 -85 -64 -152 -85
-277 -85 -101 0 -108 1 -181 38 -90 44 -175 130 -216 216 -23 50 -26 68 -26
176 -1 117 0 122 33 190 39 80 115 161 182 196 80 41 119 49 225 46 94 -2 106
-5 175 -39z"/>
<path d="M2800 2165 c-231 -52 -394 -133 -570 -281 -72 -61 -178 -176 -227
-249 -13 -19 -25 -35 -27 -35 -2 0 -35 18 -72 40 -161 94 -332 140 -549 147
-169 6 -279 -8 -412 -53 -230 -77 -455 -247 -592 -448 -95 -138 -166 -324
-191 -501 -5 -38 -10 -181 -10 -316 0 -240 1 -247 23 -280 53 -78 141 -78 194
0 22 33 23 41 23 270 0 349 32 500 142 668 268 411 784 536 1248 303 44 -22
80 -43 80 -46 0 -4 -15 -45 -34 -93 -36 -90 -75 -235 -97 -361 -9 -51 -14
-175 -14 -392 0 -436 -27 -408 390 -408 308 0 325 3 369 63 19 26 21 45 24
225 4 235 -9 394 -42 526 -42 163 -138 342 -250 464 l-39 42 39 58 c68 99 173
201 282 272 165 109 337 160 542 160 296 0 551 -109 761 -327 68 -71 139 -161
139 -178 0 -4 -20 -30 -43 -58 -134 -159 -220 -359 -246 -572 -6 -49 -11 -198
-11 -331 0 -234 1 -242 23 -275 44 -66 60 -69 367 -69 303 0 320 3 364 63 20
28 21 40 20 340 0 250 -4 330 -17 404 -24 129 -74 298 -108 365 -16 32 -29 61
-29 66 0 22 212 121 314 146 158 40 354 38 493 -5 79 -24 204 -85 271 -131
135 -93 277 -264 337 -407 63 -149 68 -181 72 -471 2 -150 8 -276 14 -292 38
-95 171 -102 214 -11 16 32 17 66 12 312 -6 303 -15 370 -76 528 -133 343
-468 629 -848 725 -74 19 -114 22 -258 22 -150 0 -181 -4 -266 -26 -121 -33
-234 -78 -324 -129 l-70 -41 -20 25 c-11 13 -40 50 -65 82 -156 199 -437 379
-700 447 -103 27 -134 31 -300 34 -138 3 -202 0 -250 -11z m-707 -998 c123
-187 167 -360 167 -667 l0 -140 -156 0 -156 0 5 248 c3 168 10 276 21 337 23
125 67 275 80 275 2 0 19 -24 39 -53z m1987 -16 c62 -158 90 -349 90 -616 l0
-175 -155 0 -155 0 0 163 c0 281 42 446 158 629 20 31 37 56 38 55 1 -1 12
-26 24 -56z"/>
</g>
</svg>
